<svg width="24" height="24" viewBox="0 0 24 24" fill="none" xmlns="http://www.w3.org/2000/svg">
<g filter="url(#filter0_d)">
<path d="M11.0462 0C7.16102 0 4 3.16102 4 7.04617C4 10.9315 7.16102 14.0923 11.0462 14.0923C14.9315 14.0923 18.0923 10.9315 18.0923 7.04617C18.0923 3.16102 14.9315 0 11.0462 0ZM11.0462 12.7915C7.87821 12.7915 5.30083 10.2142 5.30083 7.0462C5.30083 3.87824 7.87821 1.30083 11.0462 1.30083C14.2141 1.30083 16.7915 3.87821 16.7915 7.04617C16.7915 10.2141 14.2141 12.7915 11.0462 12.7915Z" fill="#363636"/>
<path d="M19.8097 14.8898L16.0806 11.1608C15.8265 10.9067 15.415 10.9067 15.1609 11.1608C14.9068 11.4147 14.9068 11.8266 15.1609 12.0805L18.89 15.8095C19.017 15.9366 19.1833 16.0001 19.3498 16.0001C19.5161 16.0001 19.6826 15.9366 19.8097 15.8095C20.0638 15.5557 20.0638 15.1437 19.8097 14.8898Z" fill="#363636"/>
</g>
<defs>
<filter id="filter0_d" x="0" y="0" width="24.0002" height="24.0001" filterUnits="userSpaceOnUse" color-interpolation-filters="sRGB">
<feFlood flood-opacity="0" result="BackgroundImageFix"/>
<feColorMatrix in="SourceAlpha" type="matrix" values="0 0 0 0 0 0 0 0 0 0 0 0 0 0 0 0 0 0 127 0"/>
<feOffset dy="4"/>
<feGaussianBlur stdDeviation="2"/>
<feColorMatrix type="matrix" values="0 0 0 0 0 0 0 0 0 0 0 0 0 0 0 0 0 0 0.25 0"/>
<feBlend mode="normal" in2="BackgroundImageFix" result="effect1_dropShadow"/>
<feBlend mode="normal" in="SourceGraphic" in2="effect1_dropShadow" result="shape"/>
</filter>
</defs>
</svg>
